<?xml version="1.0" encoding="utf-8"?>
<!-- Generator: Adobe Illustrator 21.0.0, SVG Export Plug-In . SVG Version: 6.00 Build 0)  -->
<svg version="1.1" id="Capa_1" xmlns="http://www.w3.org/2000/svg" xmlns:xlink="http://www.w3.org/1999/xlink" x="0px" y="0px"
	 viewBox="0 0 661 209" style="enable-background:new 0 0 661 209;" xml:space="preserve">
<style type="text/css">
	.st0{fill:#A57F12;}
	.st1{fill:#FAB720;}
	.st2{fill:#FFFFFF;}
	.st3{fill:#1A5FA5;}
	.st4{fill-rule:evenodd;clip-rule:evenodd;fill:#F8B51D;}
	.st5{fill:#F7B724;}
</style>
<g>
	<g>
		<g>
			<path class="st0" d="M30.2,36.7c0,0,72.6-7.1,137.6,0c0,0,7.4,80.6,0,137.6c0,0-72.4,6.8-137.6,0C30.2,174.3,21,102.3,30.2,36.7z
				"/>
		</g>
		<g>
			<path class="st1" d="M90,40.6c0,0,11.6-28.7,16.9-35.1c0,0,8.8,22.9,11.9,35.6c0,0,23.9,1,25.5,1.5c0,0,14.1-6.3,25.5-8.7
				c0,0-0.2,2.3-8.5,19.5l1.7,31.8l31.6,11.2l-31,8.1c0,0-1.4,52.3-3,63.2c0,0-41.9,2.6-48.3,2.6c0,0-4.6,15.3-8.9,20.2
				c0,0-6.3-13.1-8.2-19.8c0,0-45.7-1.4-58.8-3c0,0-3-36.8-3.4-63.3L6,98.4l27.8-12.6c0,0,2.1-37.8,2.7-42.4
				C36.5,43.4,84.8,40.2,90,40.6z"/>
		</g>
		<g>
			<path class="st2" d="M90.9,68.7c0,0,8.7-37.9,15.2-47.2c0,0,7.4,21.4,10.1,48.7c0,0,22.8-18.9,43.6-27.6c0,0-12.9,23.6-28.9,43.6
				l47.6,10.1l-51,8.4c0,0,19.8,19.1,31.7,48.7c0,0-28.2-15.9-43.7-27.2l-12.2,48.5c0,0-9.5-28.5-10.1-51.2c0,0-24.9,27.5-49.3,34.7
				c0,0,11.3-27.9,33.9-53.7l-56.3-6.7c0,0,20.9-10.3,49.1-14.5L49.6,44.9C49.6,44.9,79.5,60.8,90.9,68.7z"/>
		</g>
	</g>
	<g>
		<g>
			<g>
				<g>
					<path class="st3" d="M541.3,195.8c0.7,0.5,2.1,0.9,3.2,0.9c2.4,0,3.8-1.5,3.8-3.8c0-2.1-1.2-3.3-3-4.7
						c-1.8-1.2-4.2-3.3-4.2-6.3c0-3.4,2.4-5.9,6-5.9c1.4,0,2.6,0.4,3.1,0.8l-0.6,2.2c-0.6-0.4-1.5-0.8-2.7-0.8
						c-2.2,0-3.3,1.7-3.3,3.2c0,2.2,1.2,3.1,3.3,4.6c2.7,1.9,3.9,4,3.9,6.5c0,3.9-2.7,6.3-6.3,6.3c-1.5,0-3.1-0.5-3.8-1L541.3,195.8
						z"/>
				</g>
				<g>
					<path class="st3" d="M553.9,198.8v-22.5h2.4l4.1,10.6c0.9,2.4,2.1,5.4,2.9,7.9h0.1c-0.2-3.5-0.3-6.5-0.3-10.4v-8.1h2.3v22.5
						H563l-4.3-10.8c-0.9-2.3-1.9-4.8-2.7-7.7h-0.1c0.2,3,0.3,5.9,0.3,10.7v7.8H553.9z"/>
				</g>
				<g>
					<path class="st3" d="M572,176.3v22.5h-2.6v-22.5H572z"/>
				</g>
				<g>
					<path class="st3" d="M584.3,188.1h-5.7v8.5h6.4v2.2h-9v-22.5h8.6v2.2h-6v7.4h5.7V188.1z"/>
				</g>
				<g>
					<path class="st3" d="M587.4,195.8c0.7,0.5,2.1,0.9,3.2,0.9c2.4,0,3.8-1.5,3.8-3.8c0-2.1-1.2-3.3-3-4.7
						c-1.8-1.2-4.2-3.3-4.2-6.3c0-3.4,2.4-5.9,6-5.9c1.4,0,2.6,0.4,3.1,0.8l-0.6,2.2c-0.6-0.4-1.5-0.8-2.7-0.8
						c-2.2,0-3.3,1.7-3.3,3.2c0,2.2,1.2,3.1,3.3,4.6c2.7,1.9,3.9,4,3.9,6.5c0,3.9-2.7,6.3-6.3,6.3c-1.5,0-3.1-0.5-3.8-1L587.4,195.8
						z"/>
				</g>
				<g>
					<path class="st3" d="M604.3,198.8v-1.7l1.8-2.5c2.6-3.6,5.7-7.7,5.7-11.8c0-2.4-1-3.9-3.1-3.9c-1.6,0-2.6,0.8-3.1,1.2l-0.6-1.9
						c0.7-0.6,2.3-1.5,4.2-1.5c3.6,0,5.2,2.7,5.2,6c0,4.1-2.6,8-5.4,11.7l-1.4,2v0.1h7.2v2.3H604.3z"/>
				</g>
				<g>
					<path class="st3" d="M627.8,177.1v1.5l-7,20.2h-2.5l6.9-19.4v-0.1h-7.8v-2.3H627.8z"/>
				</g>
				<g>
					<path class="st3" d="M630.5,196c0.7,0.4,1.8,0.9,3.1,0.9c2.3,0,3.8-1.6,3.8-4.3c0-2.9-1.8-4.5-4.4-4.5h-0.6v-1.9h0.5
						c1.5,0,3.9-1.2,3.9-3.9c0-2.2-1.2-3.3-2.9-3.3c-1.1,0-2,0.5-2.7,1l-0.6-1.9c0.8-0.6,2.3-1.2,3.9-1.2c3.1,0,4.8,2.2,4.8,5
						c0,2.2-1.1,4.1-3.2,5.1v0.1c1.9,0.5,3.8,2.3,3.8,5.7c0,3.5-2.3,6.4-6.2,6.4c-1.4,0-2.9-0.4-3.8-1L630.5,196z"/>
				</g>
				<g>
					<path class="st3" d="M648.1,179.7L648.1,179.7l-3.7,2.1l-0.5-2l4.6-2.7h2.1v21.7h-2.5V179.7z"/>
				</g>
			</g>
		</g>
		<g>
			<g>
				<g>
					<g>
						<rect x="255.1" y="94.8" class="st4" width="328.7" height="2.3"/>
					</g>
					<g>
						<g>
							<path class="st3" d="M369.1,31.3l1,16.5h-1c-1.3-5-3.2-8.5-5.7-10.7c-2.5-2.2-5.4-3.3-8.9-3.3c-2.9,0-5.5,0.8-7.8,2.5
								c-2.3,1.6-4.2,4.3-5.5,7.8c-1.3,3.6-2,8.1-2,13.4c0,4.4,0.6,8.2,1.9,11.4c1.3,3.2,3.1,5.7,5.7,7.4c2.6,1.7,5.4,2.6,8.7,2.6
								c2.8,0,5.3-0.7,7.5-2c2.2-1.3,4.5-4,7.1-8l1,0.7c-2.2,4.3-4.7,7.5-7.7,9.5c-2.9,2-6.4,3-10.4,3c-7.2,0-12.8-3-16.8-9
								c-2.9-4.4-4.4-9.7-4.4-15.7c0-4.8,1-9.3,2.9-13.4c2-4,4.6-7.2,8.1-9.4c3.4-2.2,7.2-3.4,11.2-3.4c3.2,0,6.3,0.9,9.4,2.6
								c0.9,0.5,1.6,0.8,1.9,0.8c0.6,0,1.1-0.2,1.5-0.7c0.6-0.6,1-1.5,1.2-2.7H369.1z"/>
						</g>
						<g>
							<path class="st3" d="M395.9,61.6h-14.6l-3.9,10.5c-0.7,1.8-1,3.2-1,4c0,0.7,0.3,1.3,0.9,1.9c0.6,0.5,3.3,0.8,5.3,1v1.3H369
								V79c1.8-0.3,2.9-0.8,3.4-1.4c1.1-1.1,2.2-3.3,3.5-6.7l14.7-38.2h1.1l14.6,38.7c1.2,3.1,2.3,5.1,3.2,6c1,0.9,3.6,1.4,5.3,1.6
								v1.3h-20.4V79c1.7-0.1,4.8-0.4,5.4-0.9c0.6-0.5,0.9-1.1,0.9-1.9c0-1-0.4-2.6-1.2-4.8L395.9,61.6z M395,59.6l-6.5-17.7
								l-6.3,17.7H395z"/>
						</g>
						<g>
							<path class="st3" d="M244.7,34.8V33h19.5v1.8H262c-2.4-0.4-4.7,1-5.4,3.2c-0.4,1.1-0.9,3.3-0.9,6.8v26.1
								c0,6.5-0.6,11.5-1.8,15c-1.2,3.6-3.5,6.6-7,9.2c-3.5,2.5-8.2,3.8-14.2,3.8c-6.5,0-9.9-1.2-13.2-3.7c-3.4-2.4-5.8-5.7-7.2-9.8
								c-1-2.8-1.4-8.1-1.4-15.9V44.4c0-4-0.5-6.6-1.5-7.8c-1-1.2-2.6-1.8-4.9-1.8h-2.2V33H229v1.8h-2.3c-2.5,0-4.2,0.8-5.3,2.5
								c-0.7,1.1-1.1,3.5-1.1,7.1v30.5c0,2.5,0.2,5.4,0.6,8.6c0.4,3.2,1.2,5.8,2.3,7.6c1.1,1.8,2.7,3.3,4.8,4.4
								c2.1,1.2,4.7,1.8,7.7,1.8c3.9,0,6.3-0.9,9.4-2.8c3.1-1.8,5.2-4.2,6.3-7.1c1.1-2.9,1.7-10.1,1.7-17V44.4c0-4-0.4-6.5-1.2-7.6
								c-1.1-1.4-2.9-2.1-5.1-2.1H244.7z"/>
						</g>
						<g>
							<path class="st3" d="M326.4,78.3c-0.8-0.4-1.2-0.9-1.5-1.5c-0.3-0.8-0.5-2.4-0.5-4.8V41.4c0-2.9,0.3-4.7,0.9-5.4
								c0.8-1,2-1.5,3.6-1.7c1,0.1,1.7,0.3,2.4,0.6c0-0.7,0.2-1.3,0.3-2h-0.3v0h-20.4v0h-13.3v1.3h1.4c1.6,0,2.8,0.5,3.5,1.5
								c0.6,0.7,0.9,2.5,0.9,5.4V68l-25-34.9h-14.1v1.3c1.2,0,2.1,0.1,2.7,0.3c1.2,0.4,4.4,1.5,5.4,4.6v33c0,2.6-0.3,4.3-0.7,5
								c-0.7,1.2-2,1.8-3.7,1.8h-1.4v1.3h14.2v-1.3h-2.2c-1.6,0-2.8-0.5-3.5-1.4c-0.6-0.7-0.8-2.5-0.8-5.4V39.9l29.5,40.6l1.4,0
								V41.1c0-2.6,0.1-4.3,0.6-5c0.7-1.2,2.9-1.8,4.7-1.8h1.5v0h0.7c1.1,0,2.2,0.3,3.2,0.8c0.8,0.4,1.2,0.9,1.5,1.5
								c0.3,0.8,0.4,2.4,0.4,4.8V72c0,2.8-0.3,4.6-0.8,5.4c-0.9,1.2-2.3,1.7-4.3,1.7h-1.7v1.3h20.4v-1.3h-1.7
								C328.5,79.1,327.4,78.8,326.4,78.3"/>
						</g>
						<g>
							<g>
								<path class="st3" d="M494,38c-4.5-4.9-9.8-7.3-16-7.3c-6.2,0-11.5,2.2-16,6.5c-5.1,5-7.7,11.4-7.7,19.3
									c0,7.7,2.2,14,6.7,18.8c4.4,4.9,9.9,7.3,16.4,7.3c6.4,0,11.9-2.5,16.5-7.5c4.5-5,6.8-11.2,6.8-18.8
									C500.7,49,498.5,42.9,494,38z M488.4,74.5c-2.9,3.6-6.6,5.5-11,5.5c-4.2,0-7.5-1.7-10.1-5c-3.3-4.4-5-10.6-5-18.7
									c0-7.9,1.6-13.9,4.8-18c2.6-3.3,6-4.9,10.2-4.9c4.5,0,8,1.7,10.6,5c3.2,4.2,4.8,10.5,4.8,19
									C492.7,65.1,491.3,70.9,488.4,74.5z"/>
							</g>
						</g>
						<g>
							<polygon class="st3" points="487.4,16.4 477.1,26.5 475.3,26.4 481.4,16.4 							"/>
						</g>
						<g>
							<path class="st3" d="M599.3,31.4l1,16.5h-1c-1.4-5-3.2-8.5-5.7-10.7c-2.5-2.2-5.4-3.3-8.9-3.3c-2.9,0-5.5,0.8-7.9,2.5
								c-2.3,1.6-4.1,4.3-5.5,7.8c-1.4,3.6-2,8.1-2,13.4c0,4.4,0.6,8.2,1.9,11.4c1.3,3.2,3.2,5.7,5.7,7.4c2.6,1.7,5.5,2.6,8.7,2.6
								c2.8,0,5.3-0.7,7.5-2c2.2-1.4,4.6-4,7.1-8l1,0.7c-2.2,4.3-4.8,7.5-7.7,9.5c-2.9,2-6.4,3-10.4,3c-7.2,0-12.8-3-16.8-9
								c-3-4.4-4.4-9.7-4.4-15.7c0-4.9,1-9.3,2.9-13.4c2-4,4.6-7.2,8.1-9.4c3.4-2.2,7.2-3.3,11.2-3.3c3.2,0,6.3,0.8,9.3,2.6
								c0.9,0.5,1.6,0.8,2,0.8c0.6,0,1.1-0.2,1.5-0.7c0.5-0.6,1-1.5,1.2-2.7H599.3z"/>
						</g>
						<g>
							<path class="st3" d="M562.1,79.2v1.3h-20.4v-1.3h1.7c2,0,3.4-0.5,4.3-1.7c0.6-0.8,0.9-2.6,0.9-5.4V41.3c0-2.4-0.1-4-0.5-4.8
								c-0.2-0.6-0.7-1.1-1.4-1.5c-1.1-0.6-2.1-0.9-3.2-0.9h-1.7v-1.3h20.4v1.3h-1.7c-1.9,0-3.4,0.6-4.2,1.7
								c-0.6,0.8-0.9,2.6-0.9,5.4v30.8c0,2.4,0.1,4,0.4,4.8c0.2,0.6,0.7,1.1,1.5,1.5c1,0.6,2.1,0.8,3.2,0.8H562.1z"/>
						</g>
						<g>
							<path class="st3" d="M450.3,32.8l0.9,13.2h-1.4c-0.5-3.8-0.6-4.9-1.7-7c-0.8-1.4-1.6-3-2.9-3.7c-1.3-0.7-3-1-5.1-1h-7.2v37.7
								c0,2.9,0.3,4.8,1,5.5c1,1,2.4,1.5,4.4,1.5h1.8v1.3h-21.8v-1.3h1.8c2.2,0,3.7-0.6,4.6-1.8c0.5-0.8,0.8-2.5,0.8-5.1V34.5h-6.2
								c-2.4,0-4.1,0.2-5.1,0.5c-1.3,0.4-2.4,1.3-3.4,2.6c-0.9,1.3-1.7,6.3-1.8,8.4h-1.4l0.8-13.1H450.3z"/>
						</g>
						<g>
							<path class="st3" d="M538.1,65.6l0.6,0.2l-0.1,14.8h-38.3v-1.3h1.7c1.9,0,3.3-0.7,4-2c0.5-0.8,0.7-2.5,0.7-5.2V41.3
								c0-3-0.3-4.8-0.9-5.6c-0.9-1-2.2-1.6-3.8-1.6h-1.7v-1.3h20.4v1.3c-2.4,0-4.1,0.2-5,0.7c-1,0.5-1.6,1.1-2,1.9
								c-0.4,0.7-0.5,2.5-0.5,5.3v30c0,2,0.2,3.3,0.5,4c0.3,0.5,0.7,0.9,1.2,1.1c0.5,0.2,2.3,0.3,5.2,0.3h3.3c3.5,0,5.9-0.3,7.3-0.8
								c1.4-0.6,2.7-1.5,3.8-2.9C535.7,72.5,537,68.5,538.1,65.6"/>
						</g>
						<g>
							<path class="st3" d="M627.9,72.4h-19.6l-5.3,14.7c-1,2.5-1.4,4.4-1.4,5.6c0,1,0.4,1.8,1.2,2.6c0.8,0.8,4.4,1.2,7.2,1.4v1.8
								h-18.3v-1.8c2.4-0.5,3.9-1.1,4.6-1.9c1.4-1.5,3-4.6,4.7-9.3l19.8-53.2h1.5l19.6,53.8c1.6,4.3,3,7.1,4.3,8.4
								c1.3,1.3,4.8,2,7.1,2.2v1.8h-27.5v-1.8c2.2-0.1,6.5-0.5,7.3-1.3c0.8-0.7,1.2-1.6,1.2-2.7c0-1.4-0.6-3.6-1.7-6.6L627.9,72.4z
								 M626.7,69.6L617.9,45l-8.5,24.6H626.7z"/>
						</g>
					</g>
					<g>
						<g>
							<g>
								<path class="st3" d="M206.2,110.4v6.2h2.9c0.7,0,1.2-0.1,1.5-0.4c0.3-0.3,0.5-0.9,0.6-1.7h0.4v5.4h-0.4
									c0-0.6-0.1-1.1-0.2-1.3c-0.1-0.3-0.3-0.5-0.6-0.7c-0.3-0.1-0.7-0.2-1.2-0.2h-2.9v5c0,0.8,0,1.3,0.2,1.6
									c0.1,0.2,0.3,0.4,0.5,0.5c0.4,0.2,0.7,0.3,1.1,0.3h0.6v0.4h-6.8v-0.4h0.5c0.7,0,1.1-0.2,1.4-0.6c0.2-0.2,0.3-0.8,0.3-1.8
									v-10.2c0-0.8,0-1.3-0.1-1.6c-0.1-0.2-0.3-0.4-0.5-0.5c-0.3-0.2-0.7-0.3-1.1-0.3h-0.5v-0.4h11.8l0.2,3.5h-0.4
									c-0.2-0.7-0.4-1.3-0.7-1.6c-0.3-0.4-0.6-0.6-1-0.8c-0.4-0.2-1-0.2-1.8-0.2H206.2z"/>
							</g>
						</g>
						<g>
							<g>
								<path class="st3" d="M226,109.9v-0.4h5.6v0.4H231c-0.6,0-1.1,0.3-1.4,0.8c-0.2,0.2-0.2,0.8-0.2,1.7v6.4
									c0,1.6-0.2,2.8-0.5,3.7c-0.3,0.9-1,1.6-1.9,2.3c-0.9,0.6-2.2,0.9-3.8,0.9c-1.7,0-3-0.3-3.9-0.9c-0.9-0.6-1.5-1.4-1.9-2.4
									c-0.3-0.7-0.4-2-0.4-3.9v-6.2c0-1-0.1-1.6-0.4-1.9c-0.3-0.3-0.7-0.5-1.3-0.5h-0.6v-0.4h6.8v0.4H221c-0.7,0-1.1,0.2-1.4,0.6
									c-0.2,0.3-0.3,0.9-0.3,1.8v6.9c0,0.6,0.1,1.3,0.2,2.1c0.1,0.8,0.3,1.4,0.6,1.9c0.3,0.4,0.7,0.8,1.3,1.1
									c0.6,0.3,1.2,0.4,2.1,0.4c1,0,2-0.2,2.8-0.7c0.8-0.5,1.4-1,1.7-1.7c0.3-0.7,0.5-1.9,0.5-3.6v-6.4c0-1-0.1-1.6-0.3-1.9
									c-0.3-0.3-0.7-0.5-1.4-0.5H226z"/>
							</g>
						</g>
						<g>
							<g>
								<path class="st3" d="M231.6,109.5h4.3l9.7,11.9v-9.1c0-1-0.1-1.6-0.3-1.8c-0.3-0.3-0.8-0.5-1.4-0.5h-0.6v-0.4h5.5v0.4h-0.6
									c-0.7,0-1.1,0.2-1.4,0.6c-0.2,0.3-0.3,0.8-0.3,1.7v13.3h-0.4l-10.5-12.7v9.8c0,1,0.1,1.6,0.3,1.8c0.3,0.3,0.8,0.5,1.4,0.5
									h0.6v0.4h-5.5v-0.4h0.5c0.7,0,1.2-0.2,1.4-0.6c0.2-0.3,0.3-0.8,0.3-1.7v-11c-0.5-0.5-0.8-0.9-1-1.1c-0.2-0.2-0.6-0.3-1-0.5
									c-0.2-0.1-0.6-0.1-1-0.1V109.5z"/>
							</g>
						</g>
						<g>
							<g>
								<path class="st3" d="M249.6,125.3v-0.4h0.6c0.7,0,1.2-0.2,1.4-0.6c0.2-0.3,0.2-0.8,0.2-1.7v-10.2c0-1-0.1-1.6-0.3-1.9
									c-0.3-0.3-0.8-0.5-1.4-0.5h-0.6v-0.4h6.5c2.4,0,4.2,0.3,5.4,0.8c1.2,0.5,2.2,1.4,3,2.7c0.7,1.3,1.1,2.7,1.1,4.3
									c0,2.2-0.7,4-2,5.5c-1.5,1.7-3.8,2.5-6.9,2.5H249.6z M254.1,124.2c1,0.2,1.8,0.3,2.5,0.3c1.8,0,3.3-0.6,4.5-1.9
									c1.2-1.3,1.8-3,1.8-5.2c0-2.2-0.6-3.9-1.8-5.2c-1.2-1.3-2.7-1.9-4.6-1.9c-0.7,0-1.5,0.1-2.4,0.3V124.2z"/>
							</g>
						</g>
						<g>
							<g>
								<path class="st3" d="M277.4,120h-6.1l-1.1,2.5c-0.3,0.6-0.4,1.1-0.4,1.4c0,0.2,0.1,0.4,0.3,0.6c0.2,0.2,0.7,0.3,1.5,0.4v0.4
									h-5v-0.4c0.7-0.1,1.1-0.3,1.3-0.5c0.4-0.4,0.8-1.1,1.3-2.3l5.6-13h0.4l5.5,13.2c0.4,1.1,0.8,1.7,1.2,2.1
									c0.4,0.3,0.9,0.5,1.5,0.5v0.4h-6.2v-0.4c0.6,0,1.1-0.1,1.3-0.3c0.2-0.2,0.3-0.4,0.3-0.7c0-0.3-0.2-0.9-0.5-1.6L277.4,120z
									 M277.1,119.2l-2.7-6.4l-2.8,6.4H277.1z"/>
							</g>
						</g>
						<g>
							<g>
								<path class="st3" d="M298.1,109.1l0.4,5.4h-0.4c-0.5-1.6-1.2-2.8-2.1-3.5c-0.9-0.7-2-1.1-3.2-1.1c-1.1,0-2,0.3-2.8,0.8
									c-0.9,0.5-1.5,1.4-2,2.6c-0.5,1.2-0.7,2.6-0.7,4.4c0,1.4,0.2,2.7,0.7,3.7c0.5,1.1,1.1,1.9,2.1,2.4c0.9,0.6,2,0.9,3.2,0.9
									c1,0,1.9-0.2,2.7-0.7c0.8-0.4,1.6-1.3,2.6-2.6l0.4,0.2c-0.8,1.4-1.7,2.4-2.8,3.1c-1.1,0.7-2.3,1-3.8,1c-2.6,0-4.7-1-6.1-2.9
									c-1.1-1.5-1.6-3.2-1.6-5.1c0-1.6,0.4-3,1.1-4.4c0.7-1.3,1.7-2.3,2.9-3.1c1.2-0.7,2.6-1.1,4.1-1.1c1.1,0,2.3,0.3,3.4,0.8
									c0.3,0.2,0.6,0.3,0.7,0.3c0.2,0,0.4-0.1,0.6-0.2c0.2-0.2,0.3-0.5,0.4-0.9H298.1z"/>
							</g>
						</g>
						<g>
							<g>
								<path class="st3" d="M307.1,124.9v0.4h-6.8v-0.4h0.6c0.7,0,1.1-0.2,1.4-0.6c0.2-0.2,0.3-0.8,0.3-1.8v-10.2
									c0-0.8,0-1.3-0.2-1.6c-0.1-0.2-0.2-0.4-0.5-0.5c-0.4-0.2-0.7-0.3-1.1-0.3h-0.6v-0.4h6.8v0.4h-0.6c-0.6,0-1.1,0.2-1.4,0.6
									c-0.2,0.2-0.3,0.8-0.3,1.8v10.2c0,0.8,0.1,1.3,0.1,1.6c0.1,0.2,0.2,0.4,0.5,0.5c0.3,0.2,0.7,0.3,1,0.3H307.1z"/>
							</g>
						</g>
						<g>
							<g>
								<path class="st3" d="M316.4,109.1c2.1,0,3.8,0.8,5.3,2.3c1.5,1.6,2.3,3.5,2.3,5.8c0,2.4-0.8,4.4-2.3,6
									c-1.5,1.6-3.4,2.4-5.5,2.4c-2.2,0-4-0.8-5.5-2.3c-1.5-1.6-2.2-3.6-2.2-6c0-2.5,0.8-4.6,2.6-6.2
									C312.5,109.8,314.3,109.1,316.4,109.1z M316.2,110c-1.4,0-2.6,0.5-3.4,1.6c-1.1,1.3-1.6,3.2-1.6,5.7c0,2.6,0.6,4.6,1.7,6
									c0.9,1,2,1.6,3.4,1.6c1.5,0,2.7-0.6,3.7-1.7c1-1.1,1.4-3,1.4-5.5c0-2.7-0.5-4.7-1.6-6.1C318.9,110.5,317.7,110,316.2,110z
									 M318.8,104.3l-3.5,4H315l1.2-4H318.8z"/>
							</g>
						</g>
						<g>
							<g>
								<path class="st3" d="M324.6,109.5h4.3l9.7,11.9v-9.1c0-1-0.1-1.6-0.3-1.8c-0.3-0.3-0.8-0.5-1.4-0.5h-0.5v-0.4h5.5v0.4h-0.6
									c-0.7,0-1.1,0.2-1.4,0.6c-0.2,0.3-0.3,0.8-0.3,1.7v13.3h-0.4l-10.4-12.7v9.8c0,1,0.1,1.6,0.3,1.8c0.3,0.3,0.8,0.5,1.4,0.5
									h0.6v0.4h-5.5v-0.4h0.5c0.7,0,1.2-0.2,1.4-0.6c0.2-0.3,0.3-0.8,0.3-1.7v-11c-0.5-0.5-0.8-0.9-1-1.1
									c-0.3-0.2-0.6-0.3-1.1-0.5c-0.2-0.1-0.6-0.1-1-0.1V109.5z"/>
							</g>
						</g>
						<g>
							<g>
								<path class="st3" d="M359.6,109.9v-0.4h5.6v0.4h-0.6c-0.6,0-1.1,0.3-1.4,0.8c-0.2,0.2-0.2,0.8-0.2,1.7v6.4
									c0,1.6-0.1,2.8-0.5,3.7c-0.3,0.9-0.9,1.6-1.9,2.3c-0.9,0.6-2.2,0.9-3.8,0.9c-1.7,0-3-0.3-3.9-0.9c-0.9-0.6-1.5-1.4-1.9-2.4
									c-0.2-0.7-0.4-2-0.4-3.9v-6.2c0-1-0.1-1.6-0.4-1.9c-0.3-0.3-0.7-0.5-1.3-0.5h-0.6v-0.4h6.8v0.4h-0.6c-0.7,0-1.1,0.2-1.4,0.6
									c-0.2,0.3-0.3,0.9-0.3,1.8v6.9c0,0.6,0,1.3,0.2,2.1c0.1,0.8,0.3,1.4,0.6,1.9c0.3,0.4,0.7,0.8,1.3,1.1c0.5,0.3,1.2,0.4,2,0.4
									c1,0,2-0.2,2.8-0.7c0.8-0.5,1.4-1,1.7-1.7c0.3-0.7,0.4-1.9,0.4-3.6v-6.4c0-1-0.1-1.6-0.3-1.9c-0.3-0.3-0.8-0.5-1.4-0.5
									H359.6z"/>
							</g>
						</g>
						<g>
							<g>
								<path class="st3" d="M365.1,109.5h4.3l9.7,11.9v-9.1c0-1-0.1-1.6-0.3-1.8c-0.3-0.3-0.7-0.5-1.4-0.5h-0.5v-0.4h5.5v0.4h-0.6
									c-0.7,0-1.1,0.2-1.4,0.6c-0.2,0.3-0.3,0.8-0.3,1.7v13.3h-0.4l-10.5-12.7v9.8c0,1,0.1,1.6,0.3,1.8c0.3,0.3,0.7,0.5,1.4,0.5
									h0.6v0.4H366v-0.4h0.6c0.7,0,1.2-0.2,1.4-0.6c0.2-0.3,0.3-0.8,0.3-1.7v-11c-0.5-0.5-0.8-0.9-1-1.1c-0.2-0.2-0.6-0.3-1.1-0.5
									c-0.2-0.1-0.6-0.1-1-0.1V109.5z"/>
							</g>
						</g>
						<g>
							<g>
								<path class="st3" d="M390.1,124.9v0.4h-6.8v-0.4h0.6c0.7,0,1.1-0.2,1.4-0.6c0.2-0.2,0.3-0.8,0.3-1.8v-10.2
									c0-0.8-0.1-1.3-0.2-1.6c-0.1-0.2-0.2-0.4-0.5-0.5c-0.3-0.2-0.7-0.3-1.1-0.3h-0.6v-0.4h6.8v0.4h-0.6c-0.6,0-1.1,0.2-1.4,0.6
									c-0.2,0.2-0.3,0.8-0.3,1.8v10.2c0,0.8,0.1,1.3,0.1,1.6c0.1,0.2,0.3,0.4,0.5,0.5c0.3,0.2,0.7,0.3,1.1,0.3H390.1z"/>
							</g>
						</g>
						<g>
							<g>
								<path class="st3" d="M407.7,109.5v0.4c-0.6,0.1-1,0.3-1.3,0.5c-0.4,0.4-0.8,1-1.1,1.7l-5.5,13.5h-0.4l-5.9-13.7
									c-0.3-0.7-0.5-1.1-0.6-1.3c-0.2-0.2-0.4-0.4-0.7-0.6c-0.3-0.1-0.7-0.2-1.2-0.3v-0.4h6.5v0.4c-0.7,0.1-1.2,0.2-1.4,0.4
									c-0.2,0.2-0.3,0.4-0.3,0.7c0,0.4,0.2,1,0.6,1.8l4,9.3l3.7-9.2c0.4-0.9,0.6-1.5,0.6-1.9c0-0.2-0.1-0.4-0.3-0.6
									c-0.2-0.2-0.6-0.3-1.1-0.4c0,0-0.1,0-0.2,0v-0.4H407.7z"/>
							</g>
						</g>
						<g>
							<g>
								<path class="st3" d="M413,110.4v6.3h3.5c0.9,0,1.5-0.2,1.8-0.4c0.4-0.4,0.6-1,0.7-1.9h0.4v5.5H419c-0.1-0.8-0.2-1.3-0.3-1.5
									c-0.1-0.3-0.4-0.5-0.7-0.6c-0.3-0.1-0.8-0.2-1.5-0.2H413v5.2c0,0.7,0,1.1,0.1,1.3c0.1,0.2,0.2,0.3,0.3,0.4
									c0.2,0.1,0.4,0.2,0.9,0.2h2.7c0.9,0,1.5-0.1,2-0.2c0.4-0.1,0.8-0.4,1.2-0.7c0.5-0.5,1-1.2,1.5-2.2h0.5l-1.4,4h-12.2v-0.4
									h0.6c0.4,0,0.7-0.1,1.1-0.3c0.2-0.1,0.4-0.3,0.5-0.6c0.1-0.2,0.1-0.8,0.1-1.5v-10.3c0-1-0.1-1.6-0.3-1.9
									c-0.3-0.3-0.8-0.5-1.4-0.5h-0.6v-0.4h12.2l0.2,3.5h-0.5c-0.2-0.8-0.3-1.4-0.5-1.7c-0.2-0.3-0.5-0.5-0.9-0.7
									c-0.3-0.1-0.9-0.2-1.7-0.2H413z"/>
							</g>
						</g>
						<g>
							<g>
								<path class="st3" d="M438.8,125.3h-4.2l-5.3-7.4c-0.4,0-0.7,0-1,0c-0.1,0-0.2,0-0.3,0c-0.1,0-0.2,0-0.4,0v4.6
									c0,1,0.1,1.6,0.3,1.9c0.3,0.3,0.7,0.5,1.3,0.5h0.6v0.4H423v-0.4h0.6c0.7,0,1.1-0.2,1.4-0.7c0.2-0.2,0.2-0.8,0.2-1.7v-10.2
									c0-1-0.1-1.6-0.3-1.9c-0.3-0.3-0.8-0.5-1.4-0.5H423v-0.4h5.8c1.7,0,2.9,0.1,3.7,0.4c0.8,0.3,1.5,0.7,2,1.4
									c0.5,0.7,0.8,1.4,0.8,2.3c0,1-0.3,1.8-1,2.5c-0.6,0.7-1.6,1.2-3,1.5l3.3,4.5c0.7,1,1.4,1.7,1.9,2.1c0.5,0.3,1.2,0.6,2.1,0.7
									V125.3z M427.5,117.2c0.1,0,0.3,0,0.4,0c0.1,0,0.2,0,0.3,0c1.5,0,2.6-0.3,3.4-1c0.8-0.7,1.1-1.5,1.1-2.5
									c0-1-0.3-1.8-0.9-2.4c-0.6-0.6-1.5-0.9-2.5-0.9c-0.5,0-1.1,0.1-1.8,0.2V117.2z"/>
							</g>
						</g>
						<g>
							<g>
								<path class="st3" d="M449.5,109.1v5.5h-0.4c-0.1-1-0.4-1.9-0.7-2.5c-0.4-0.6-0.9-1.1-1.5-1.5c-0.7-0.4-1.4-0.6-2.1-0.6
									c-0.8,0-1.5,0.3-2,0.8c-0.5,0.5-0.8,1-0.8,1.7c0,0.5,0.2,0.9,0.5,1.3c0.5,0.6,1.6,1.4,3.4,2.3c1.5,0.8,2.5,1.4,3,1.8
									c0.5,0.4,1,0.9,1.3,1.5c0.3,0.6,0.4,1.2,0.4,1.8c0,1.2-0.5,2.2-1.4,3.1c-0.9,0.9-2.1,1.3-3.6,1.3c-0.5,0-0.9,0-1.3-0.1
									c-0.2,0-0.7-0.2-1.5-0.4c-0.8-0.2-1.3-0.4-1.5-0.4c-0.2,0-0.3,0.1-0.5,0.2c-0.1,0.1-0.2,0.4-0.2,0.7h-0.4v-5.4h0.4
									c0.2,1.1,0.5,2,0.8,2.5c0.3,0.6,0.9,1,1.6,1.4c0.7,0.4,1.5,0.6,2.3,0.6c1,0,1.7-0.3,2.3-0.8c0.6-0.5,0.8-1.1,0.8-1.8
									c0-0.4-0.1-0.8-0.3-1.2c-0.2-0.4-0.5-0.8-1-1.1c-0.3-0.2-1.1-0.7-2.5-1.5c-1.3-0.8-2.3-1.4-2.9-1.8c-0.6-0.5-1-1-1.3-1.5
									c-0.3-0.5-0.4-1.1-0.4-1.8c0-1.1,0.4-2.1,1.3-2.9c0.9-0.8,2-1.2,3.3-1.2c0.9,0,1.8,0.2,2.7,0.6c0.4,0.2,0.7,0.3,0.9,0.3
									c0.2,0,0.4,0,0.5-0.2c0.1-0.1,0.2-0.4,0.3-0.7H449.5z"/>
							</g>
						</g>
						<g>
							<g>
								<path class="st3" d="M459.2,124.9v0.4h-6.8v-0.4h0.6c0.6,0,1.1-0.2,1.4-0.6c0.2-0.2,0.3-0.8,0.3-1.8v-10.2
									c0-0.8,0-1.3-0.2-1.6c-0.1-0.2-0.2-0.4-0.5-0.5c-0.4-0.2-0.7-0.3-1.1-0.3h-0.6v-0.4h6.8v0.4h-0.6c-0.7,0-1.1,0.2-1.4,0.6
									c-0.2,0.2-0.3,0.8-0.3,1.8v10.2c0,0.8,0,1.3,0.2,1.6c0.1,0.2,0.2,0.4,0.5,0.5c0.3,0.2,0.7,0.3,1.1,0.3H459.2z"/>
							</g>
						</g>
						<g>
							<g>
								<path class="st3" d="M473.7,109.5l0.2,3.7h-0.4c-0.1-0.7-0.2-1.1-0.4-1.4c-0.2-0.4-0.6-0.8-1-1c-0.4-0.2-0.9-0.3-1.6-0.3
									h-2.2v12.1c0,1,0.1,1.6,0.3,1.8c0.3,0.3,0.8,0.5,1.4,0.5h0.6v0.4h-6.7v-0.4h0.6c0.7,0,1.1-0.2,1.4-0.6
									c0.2-0.3,0.3-0.8,0.3-1.7v-12.1h-1.9c-0.7,0-1.3,0.1-1.6,0.2c-0.4,0.2-0.8,0.4-1,0.9c-0.3,0.4-0.5,1-0.5,1.7h-0.4l0.2-3.7
									H473.7z"/>
							</g>
						</g>
						<g>
							<g>
								<path class="st3" d="M483.5,120h-6.1l-1.1,2.5c-0.3,0.6-0.4,1.1-0.4,1.4c0,0.2,0.1,0.4,0.3,0.6c0.2,0.2,0.7,0.3,1.5,0.4v0.4
									h-5v-0.4c0.7-0.1,1.1-0.3,1.3-0.5c0.4-0.4,0.8-1.1,1.3-2.3l5.6-13h0.4l5.5,13.2c0.4,1.1,0.9,1.7,1.2,2.1
									c0.4,0.3,0.9,0.5,1.5,0.5v0.4h-6.3v-0.4c0.6,0,1.1-0.1,1.3-0.3c0.2-0.2,0.3-0.4,0.3-0.7c0-0.3-0.2-0.9-0.5-1.6L483.5,120z
									 M483.2,119.2l-2.7-6.4l-2.8,6.4H483.2z"/>
							</g>
						</g>
						<g>
							<g>
								<path class="st3" d="M506,125.3h-4.2l-5.4-7.4c-0.4,0-0.7,0-1,0c-0.1,0-0.2,0-0.3,0c-0.1,0-0.2,0-0.4,0v4.6
									c0,1,0.1,1.6,0.3,1.9c0.3,0.3,0.7,0.5,1.3,0.5h0.6v0.4h-6.8v-0.4h0.6c0.7,0,1.1-0.2,1.4-0.7c0.2-0.2,0.2-0.8,0.2-1.7v-10.2
									c0-1-0.1-1.6-0.3-1.9c-0.3-0.3-0.8-0.5-1.4-0.5h-0.6v-0.4h5.8c1.7,0,2.9,0.1,3.7,0.4c0.8,0.3,1.5,0.7,2,1.4
									c0.6,0.7,0.8,1.4,0.8,2.3c0,1-0.3,1.8-0.9,2.5c-0.6,0.7-1.6,1.2-2.9,1.5l3.3,4.5c0.7,1,1.4,1.7,1.9,2.1
									c0.5,0.3,1.2,0.6,2.1,0.7V125.3z M494.7,117.2c0.2,0,0.3,0,0.4,0c0.1,0,0.2,0,0.3,0c1.5,0,2.7-0.3,3.4-1
									c0.8-0.7,1.1-1.5,1.1-2.5c0-1-0.3-1.8-0.9-2.4c-0.6-0.6-1.5-0.9-2.5-0.9c-0.4,0-1.1,0.1-1.8,0.2V117.2z"/>
							</g>
						</g>
						<g>
							<g>
								<path class="st3" d="M513.2,124.9v0.4h-6.8v-0.4h0.5c0.7,0,1.1-0.2,1.4-0.6c0.2-0.2,0.3-0.8,0.3-1.8v-10.2
									c0-0.8,0-1.3-0.1-1.6c-0.1-0.2-0.2-0.4-0.5-0.5c-0.3-0.2-0.7-0.3-1.1-0.3h-0.5v-0.4h6.8v0.4h-0.6c-0.6,0-1.1,0.2-1.4,0.6
									c-0.2,0.2-0.3,0.8-0.3,1.8v10.2c0,0.8,0.1,1.3,0.2,1.6c0.1,0.2,0.2,0.4,0.5,0.5c0.4,0.2,0.7,0.3,1.1,0.3H513.2z"/>
							</g>
						</g>
						<g>
							<g>
								<path class="st3" d="M524.7,120h-6.1l-1.1,2.5c-0.3,0.6-0.4,1.1-0.4,1.4c0,0.2,0.1,0.4,0.3,0.6c0.2,0.2,0.7,0.3,1.5,0.4v0.4
									h-5v-0.4c0.7-0.1,1.1-0.3,1.3-0.5c0.4-0.4,0.8-1.1,1.3-2.3l5.6-13h0.4l5.5,13.2c0.4,1.1,0.9,1.7,1.2,2.1
									c0.3,0.3,0.9,0.5,1.5,0.5v0.4h-6.3v-0.4c0.6,0,1.1-0.1,1.3-0.3c0.2-0.2,0.3-0.4,0.3-0.7c0-0.3-0.2-0.9-0.5-1.6L524.7,120z
									 M524.4,119.2l-2.7-6.4l-2.8,6.4H524.4z"/>
							</g>
						</g>
						<g>
							<g>
								<path class="st3" d="M550.1,109.1l0.4,5.4h-0.4c-0.5-1.6-1.2-2.8-2.1-3.5c-0.9-0.7-2-1.1-3.2-1.1c-1.1,0-2,0.3-2.9,0.8
									c-0.9,0.5-1.5,1.4-2,2.6c-0.5,1.2-0.7,2.6-0.7,4.4c0,1.4,0.2,2.7,0.7,3.7c0.5,1.1,1.1,1.9,2.1,2.4c0.9,0.6,2,0.9,3.2,0.9
									c1,0,1.9-0.2,2.7-0.7c0.8-0.4,1.6-1.3,2.6-2.6l0.4,0.2c-0.8,1.4-1.7,2.4-2.8,3.1c-1.1,0.7-2.3,1-3.8,1c-2.6,0-4.6-1-6.1-2.9
									c-1.1-1.5-1.6-3.2-1.6-5.1c0-1.6,0.4-3,1.1-4.4c0.7-1.3,1.7-2.3,2.9-3.1c1.3-0.7,2.6-1.1,4.1-1.1c1.1,0,2.3,0.3,3.4,0.8
									c0.3,0.2,0.6,0.3,0.7,0.3c0.2,0,0.4-0.1,0.6-0.2c0.2-0.2,0.4-0.5,0.4-0.9H550.1z"/>
							</g>
						</g>
						<g>
							<g>
								<path class="st3" d="M562.6,120h-6.1l-1.1,2.5c-0.3,0.6-0.4,1.1-0.4,1.4c0,0.2,0.1,0.4,0.3,0.6c0.2,0.2,0.7,0.3,1.5,0.4v0.4
									h-5v-0.4c0.7-0.1,1.1-0.3,1.3-0.5c0.4-0.4,0.8-1.1,1.3-2.3l5.6-13h0.4l5.5,13.2c0.5,1.1,0.9,1.7,1.2,2.1
									c0.4,0.3,0.9,0.5,1.5,0.5v0.4h-6.2v-0.4c0.6,0,1-0.1,1.3-0.3c0.2-0.2,0.3-0.4,0.3-0.7c0-0.3-0.2-0.9-0.5-1.6L562.6,120z
									 M562.3,119.2l-2.7-6.4l-2.7,6.4H562.3z"/>
							</g>
						</g>
						<g>
							<g>
								<path class="st3" d="M580.1,109.5l0.2,3.7h-0.4c-0.1-0.7-0.2-1.1-0.4-1.4c-0.2-0.4-0.6-0.8-1-1c-0.4-0.2-0.9-0.3-1.6-0.3
									h-2.2v12.1c0,1,0.1,1.6,0.3,1.8c0.3,0.3,0.7,0.5,1.4,0.5h0.5v0.4h-6.7v-0.4h0.6c0.7,0,1.1-0.2,1.4-0.6
									c0.2-0.3,0.3-0.8,0.3-1.7v-12.1h-1.9c-0.8,0-1.3,0.1-1.6,0.2c-0.4,0.2-0.8,0.4-1,0.9c-0.3,0.4-0.4,1-0.5,1.7H567l0.2-3.7
									H580.1z"/>
							</g>
						</g>
						<g>
							<g>
								<path class="st3" d="M589.6,109.1c2.1,0,3.8,0.8,5.3,2.3c1.5,1.6,2.3,3.5,2.3,5.8c0,2.4-0.8,4.4-2.3,6
									c-1.5,1.6-3.4,2.4-5.5,2.4c-2.2,0-4-0.8-5.5-2.3c-1.5-1.6-2.2-3.6-2.2-6c0-2.5,0.9-4.6,2.6-6.2
									C585.8,109.8,587.6,109.1,589.6,109.1z M589.4,110c-1.4,0-2.6,0.5-3.4,1.6c-1.1,1.3-1.6,3.2-1.6,5.7c0,2.6,0.6,4.6,1.7,6
									c0.9,1,2,1.6,3.4,1.6c1.5,0,2.7-0.6,3.7-1.7c1-1.1,1.5-3,1.5-5.5c0-2.7-0.5-4.7-1.6-6.1C592.1,110.5,590.9,110,589.4,110z
									 M592.1,104.3l-3.4,4h-0.4l1.2-4H592.1z"/>
							</g>
						</g>
						<g>
							<g>
								<path class="st3" d="M611.9,121l0.4,0.1l-1.3,4.3h-12.3v-0.4h0.6c0.7,0,1.1-0.2,1.4-0.7c0.1-0.3,0.2-0.8,0.2-1.7v-10.2
									c0-1-0.1-1.6-0.3-1.9c-0.3-0.3-0.8-0.5-1.3-0.5h-0.6v-0.4h7.2v0.4c-0.8,0-1.4,0.1-1.8,0.2c-0.3,0.2-0.6,0.4-0.7,0.6
									c-0.1,0.2-0.2,0.8-0.2,1.8v10c0,0.7,0.1,1.1,0.2,1.3c0.1,0.2,0.2,0.3,0.4,0.4c0.2,0.1,0.8,0.1,1.8,0.1h1.1
									c1.2,0,2.1-0.1,2.6-0.3c0.5-0.2,0.9-0.5,1.3-1C611.1,122.7,611.5,121.9,611.9,121z"/>
							</g>
						</g>
						<g>
							<g>
								<path class="st3" d="M620.1,124.9v0.4h-6.8v-0.4h0.6c0.7,0,1.1-0.2,1.4-0.6c0.2-0.2,0.3-0.8,0.3-1.8v-10.2
									c0-0.8-0.1-1.3-0.1-1.6c-0.1-0.2-0.2-0.4-0.5-0.5c-0.3-0.2-0.7-0.3-1.1-0.3h-0.6v-0.4h6.8v0.4h-0.6c-0.6,0-1.1,0.2-1.4,0.6
									c-0.2,0.2-0.3,0.8-0.3,1.8v10.2c0,0.8,0.1,1.3,0.2,1.6c0.1,0.2,0.2,0.4,0.5,0.5c0.3,0.2,0.7,0.3,1,0.3H620.1z"/>
							</g>
						</g>
						<g>
							<g>
								<path class="st3" d="M635.1,109.1l0.4,5.4h-0.4c-0.5-1.6-1.2-2.8-2.1-3.5c-0.9-0.7-2-1.1-3.2-1.1c-1.1,0-2,0.3-2.9,0.8
									c-0.8,0.5-1.5,1.4-2,2.6c-0.5,1.2-0.7,2.6-0.7,4.4c0,1.4,0.2,2.7,0.7,3.7c0.4,1.1,1.1,1.9,2.1,2.4c0.9,0.6,2,0.9,3.2,0.9
									c1,0,1.9-0.2,2.7-0.7c0.8-0.4,1.7-1.3,2.6-2.6l0.4,0.2c-0.8,1.4-1.7,2.4-2.8,3.1c-1.1,0.7-2.3,1-3.8,1c-2.6,0-4.7-1-6.1-2.9
									c-1.1-1.5-1.6-3.2-1.6-5.1c0-1.6,0.3-3,1-4.4c0.7-1.3,1.7-2.3,2.9-3.1c1.2-0.7,2.6-1.1,4.1-1.1c1.1,0,2.3,0.3,3.4,0.8
									c0.3,0.2,0.5,0.3,0.7,0.3c0.2,0,0.4-0.1,0.6-0.2c0.2-0.2,0.3-0.5,0.4-0.9H635.1z"/>
							</g>
						</g>
						<g>
							<g>
								<path class="st3" d="M647.7,120h-6.2l-1.1,2.5c-0.3,0.6-0.4,1.1-0.4,1.4c0,0.2,0.1,0.4,0.4,0.6c0.2,0.2,0.7,0.3,1.5,0.4v0.4
									h-5v-0.4c0.7-0.1,1.1-0.3,1.3-0.5c0.4-0.4,0.8-1.1,1.3-2.3l5.6-13h0.4l5.5,13.2c0.4,1.1,0.8,1.7,1.2,2.1
									c0.4,0.3,0.9,0.5,1.5,0.5v0.4h-6.2v-0.4c0.6,0,1-0.1,1.3-0.3c0.2-0.2,0.3-0.4,0.3-0.7c0-0.3-0.2-0.9-0.5-1.6L647.7,120z
									 M647.3,119.2l-2.7-6.4l-2.8,6.4H647.3z"/>
							</g>
						</g>
					</g>
					<g>
						<g>
							<path class="st5" d="M201.2,135.7v24.6h452.9v-24.6H201.2z"/>
						</g>
					</g>
					<g>
						<g>
							<path class="st3" d="M285.1,155.9H263v-1c0.4,0,0.8-0.1,1.4-0.1c0.5,0,0.9-0.1,1.1-0.2c0.4-0.1,0.7-0.3,0.8-0.5
								c0.2-0.2,0.2-0.5,0.2-0.8v-12.3c0-0.3-0.1-0.5-0.2-0.7c-0.1-0.2-0.4-0.4-0.9-0.5c-0.4-0.1-0.8-0.2-1.3-0.3
								c-0.5,0-0.9-0.1-1.2-0.2v-0.9h13.2v0.9c-0.3,0-0.8,0.1-1.3,0.1c-0.5,0-0.9,0.1-1.3,0.2c-0.5,0.1-0.7,0.3-0.9,0.5
								c-0.1,0.2-0.2,0.5-0.2,0.8v11.4c0,0.6,0.1,1,0.1,1.3c0.1,0.3,0.3,0.5,0.6,0.7c0.3,0.2,0.7,0.3,1.3,0.3c0.5,0,1.2,0.1,2.2,0.1
								c0.9,0,1.8,0,2.6-0.1c0.8-0.1,1.5-0.3,1.9-0.5c0.6-0.4,1.2-1,1.8-1.8c0.6-0.8,1.1-1.4,1.5-2.1h1.2L285.1,155.9z"/>
						</g>
						<g>
							<path class="st3" d="M314.5,139.5c-0.3,0-0.8,0.1-1.4,0.1c-0.6,0.1-1.1,0.3-1.6,0.5c-0.4,0.2-0.7,0.6-0.9,1.1
								c-0.1,0.5-0.3,1.3-0.3,2.4v6.5c0,1.9-0.9,3.4-2.7,4.6c-1.8,1.2-4.1,1.7-7.1,1.7c-3.4,0-6.1-0.6-8-1.7
								c-1.9-1.1-2.8-2.7-2.8-4.7v-8.9c0-0.3-0.1-0.5-0.2-0.7c-0.1-0.2-0.4-0.4-0.9-0.5c-0.3-0.1-0.7-0.2-1.1-0.3
								c-0.4-0.1-0.8-0.1-1-0.2v-0.9h12.5v0.9c-0.4,0-0.7,0.1-1.1,0.1c-0.4,0-0.7,0.1-1.1,0.2c-0.4,0.1-0.7,0.3-0.9,0.5
								c-0.2,0.2-0.2,0.5-0.2,0.8v8.7c0,1.7,0.5,3,1.6,3.8c1,0.8,2.6,1.2,4.6,1.2c1.9,0,3.5-0.5,4.6-1.3c1.1-0.9,1.7-2.1,1.7-3.8
								v-5.9c0-1.1-0.1-1.8-0.3-2.3c-0.2-0.5-0.5-0.9-0.9-1.1c-0.3-0.2-0.8-0.3-1.6-0.5c-0.7-0.2-1.2-0.2-1.5-0.3v-1h10.5V139.5z"/>
						</g>
						<g>
							<path class="st3" d="M348.7,155.9h-13v-1c0.4,0,0.9-0.1,1.4-0.1c0.6-0.1,0.9-0.1,1.1-0.2c0.4-0.1,0.7-0.3,0.9-0.5
								c0.2-0.2,0.2-0.5,0.2-0.8v-13l-8.2,15.3H329c-0.1-0.3-0.4-0.8-0.8-1.6c-0.4-0.8-0.7-1.4-1-1.9l-6.1-12v10.6
								c0,1,0.1,1.8,0.3,2.3c0.2,0.5,0.5,0.9,0.9,1.2c0.3,0.2,0.8,0.3,1.5,0.5c0.7,0.2,1.2,0.2,1.5,0.3v1h-10.4v-1
								c0.3,0,0.7-0.1,1.4-0.2c0.6-0.1,1.2-0.2,1.5-0.5c0.5-0.2,0.8-0.6,0.9-1.1c0.2-0.6,0.2-1.3,0.2-2.3v-8.6c0-0.5-0.1-1-0.3-1.3
								c-0.2-0.4-0.4-0.6-0.8-0.8c-0.5-0.3-0.9-0.4-1.4-0.5c-0.5-0.1-1-0.1-1.4-0.2v-0.9h11.1l5.9,11.5l5-9.3
								c0.2-0.3,0.3-0.7,0.5-1.2c0.1-0.5,0.2-0.8,0.3-0.9h10.6v0.9c-0.4,0-0.8,0.1-1.1,0.1c-0.4,0-0.8,0.1-1.1,0.2
								c-0.4,0.1-0.7,0.3-0.9,0.5c-0.1,0.2-0.2,0.5-0.2,0.8v12.3c0,0.3,0.1,0.6,0.2,0.8c0.2,0.2,0.4,0.4,0.9,0.5
								c0.3,0.1,0.6,0.2,1.1,0.2c0.5,0.1,0.9,0.1,1.2,0.1V155.9z"/>
						</g>
						<g>
							<path class="st3" d="M373.7,155.9h-22.5v-1c0.3,0,0.7,0,1.3-0.1c0.5-0.1,0.9-0.1,1.1-0.2c0.5-0.1,0.7-0.3,0.9-0.5
								c0.2-0.2,0.2-0.5,0.2-0.8v-12.3c0-0.3,0-0.5-0.1-0.7c-0.1-0.2-0.5-0.4-1-0.5c-0.3-0.1-0.7-0.2-1.2-0.3
								c-0.5-0.1-0.9-0.1-1.2-0.2v-0.9h21.3v4.5h-1.3c-0.3-0.7-0.9-1.3-1.7-2c-0.8-0.7-1.6-1.1-2.4-1.2c-0.4-0.1-0.8-0.1-1.4-0.1
								c-0.6,0-1.1,0-1.5,0h-3.5v6.7h2.5c0.6,0,1.2-0.1,1.7-0.2c0.5-0.1,1-0.3,1.4-0.6c0.3-0.2,0.5-0.5,0.8-1
								c0.3-0.5,0.5-0.9,0.5-1.3h1.3v7.2h-1.3c-0.1-0.3-0.3-0.8-0.5-1.3c-0.3-0.5-0.5-0.8-0.8-1c-0.4-0.3-0.8-0.5-1.3-0.6
								c-0.5-0.1-1.1-0.2-1.7-0.2h-2.5v5c0,0.5,0.1,0.9,0.2,1.3c0.1,0.3,0.3,0.6,0.6,0.7c0.3,0.2,0.7,0.3,1.2,0.3
								c0.5,0,1.1,0.1,2,0.1c0.4,0,0.9,0,1.4,0c0.5,0,1,0,1.4-0.1c0.5,0,0.9-0.1,1.3-0.2c0.4-0.1,0.7-0.2,0.9-0.4
								c0.5-0.4,1.2-1,1.8-1.8c0.7-0.8,1.1-1.4,1.3-1.9h1.2L373.7,155.9z"/>
						</g>
						<g>
							<path class="st3" d="M403.8,139.5c-0.3,0-0.8,0-1.3,0.1c-0.6,0-1.1,0.2-1.6,0.5c-0.4,0.2-0.7,0.6-0.9,1.1
								c-0.2,0.6-0.3,1.3-0.3,2.4V156h-3l-14.9-13.5v8.2c0,1,0.1,1.8,0.3,2.3c0.2,0.5,0.5,0.9,0.9,1.2c0.3,0.2,0.8,0.3,1.5,0.5
								c0.7,0.1,1.2,0.2,1.6,0.3v1h-10.4v-1c0.4,0,1-0.1,1.5-0.2c0.6-0.1,1.1-0.2,1.4-0.4c0.4-0.2,0.7-0.6,0.9-1.1
								c0.1-0.5,0.2-1.3,0.2-2.4v-8.2c0-0.4-0.1-0.8-0.3-1.2c-0.2-0.4-0.4-0.7-0.8-1c-0.4-0.3-0.8-0.5-1.3-0.7
								c-0.5-0.2-1.1-0.3-1.8-0.4v-0.9h9.1l13,11.7v-6.6c0-1-0.1-1.8-0.3-2.4c-0.2-0.5-0.5-0.9-0.9-1.1c-0.3-0.2-0.8-0.4-1.4-0.5
								c-0.7-0.1-1.2-0.2-1.6-0.3v-0.9h10.4V139.5z"/>
						</g>
						<g>
							<path class="st3" d="M440.8,148.8c-0.3,0-0.6,0.1-0.9,0.1c-0.3,0-0.6,0.1-1,0.2c-0.5,0.1-0.8,0.3-0.9,0.5
								c-0.2,0.2-0.2,0.5-0.2,0.8v2c0,0.4,0,0.7,0,1c0,0.2,0,0.6,0,0.9c-1.1,0.5-2.8,1-5,1.4c-2.2,0.4-4.2,0.6-6.1,0.6
								c-1.7,0-3.3-0.2-4.9-0.6c-1.5-0.4-2.8-1-4-1.7c-1.1-0.8-2.1-1.7-2.7-2.9c-0.7-1.1-1-2.4-1-3.9c0-1.3,0.3-2.6,0.9-3.7
								c0.7-1.1,1.6-2.2,2.7-3c1.2-0.8,2.5-1.5,4.2-1.9c1.6-0.5,3.5-0.7,5.5-0.7c1.4,0,2.6,0.1,3.8,0.4c1.1,0.3,2.1,0.5,2.9,0.8
								l1.1-0.7h1.5l0.1,6.3h-1.5c-0.9-1.9-1.9-3.3-3.1-4.2c-1.2-0.9-2.7-1.4-4.5-1.4c-2.2,0-3.9,0.7-5.1,2
								c-1.2,1.4-1.8,3.3-1.8,5.7c0,2.6,0.6,4.5,1.7,6c1.2,1.5,2.8,2.2,4.9,2.2c1,0,1.9-0.1,2.7-0.3c0.8-0.2,1.4-0.5,1.8-0.7v-3.5
								c0-0.3-0.1-0.5-0.2-0.7c-0.1-0.2-0.4-0.4-0.9-0.5c-0.3-0.1-0.7-0.2-1.3-0.3c-0.5-0.1-0.9-0.1-1.3-0.2v-0.9h12.5V148.8z"/>
						</g>
						<g>
							<path class="st3" d="M464.6,155.9h-22.6v-1c0.3,0,0.8,0,1.3-0.1c0.5-0.1,0.9-0.1,1.2-0.2c0.4-0.1,0.7-0.3,0.9-0.5
								c0.2-0.2,0.2-0.5,0.2-0.8v-12.3c0-0.3-0.1-0.5-0.2-0.7c-0.1-0.2-0.4-0.4-0.9-0.5c-0.3-0.1-0.7-0.2-1.3-0.3
								c-0.5-0.1-0.9-0.1-1.2-0.2v-0.9h21.3v4.5h-1.3c-0.3-0.7-0.9-1.3-1.7-2c-0.8-0.7-1.6-1.1-2.4-1.2c-0.3-0.1-0.8-0.1-1.4-0.1
								c-0.6,0-1.1,0-1.5,0h-3.5v6.7h2.5c0.6,0,1.2-0.1,1.7-0.2c0.5-0.1,1-0.3,1.4-0.6c0.3-0.2,0.5-0.5,0.8-1
								c0.3-0.5,0.4-0.9,0.6-1.3h1.3v7.2h-1.3c-0.1-0.3-0.3-0.8-0.6-1.3c-0.3-0.5-0.5-0.8-0.8-1c-0.4-0.3-0.8-0.5-1.3-0.6
								c-0.5-0.1-1.1-0.2-1.7-0.2h-2.5v5c0,0.5,0.1,0.9,0.2,1.3c0.1,0.3,0.3,0.6,0.6,0.7c0.3,0.2,0.7,0.3,1.2,0.3
								c0.5,0,1.1,0.1,2,0.1c0.4,0,0.9,0,1.4,0c0.5,0,1,0,1.5-0.1c0.4,0,0.9-0.1,1.3-0.2c0.4-0.1,0.7-0.2,0.9-0.4
								c0.5-0.4,1.1-1,1.8-1.8c0.7-0.8,1.1-1.4,1.3-1.9h1.2L464.6,155.9z"/>
						</g>
						<g>
							<path class="st3" d="M494.7,139.5c-0.3,0-0.8,0-1.4,0.1c-0.6,0-1.1,0.2-1.6,0.5c-0.4,0.2-0.7,0.6-0.9,1.1
								c-0.2,0.6-0.3,1.3-0.3,2.4V156h-3l-14.9-13.5v8.2c0,1,0.1,1.8,0.3,2.3c0.2,0.5,0.5,0.9,0.9,1.2c0.3,0.2,0.8,0.3,1.5,0.5
								c0.7,0.1,1.2,0.2,1.6,0.3v1h-10.4v-1c0.4,0,1-0.1,1.5-0.2c0.6-0.1,1.1-0.2,1.5-0.4c0.4-0.2,0.7-0.6,0.9-1.1
								c0.2-0.5,0.3-1.3,0.3-2.4v-8.2c0-0.4-0.1-0.8-0.3-1.2c-0.2-0.4-0.5-0.7-0.8-1c-0.4-0.3-0.8-0.5-1.3-0.7
								c-0.5-0.2-1.1-0.3-1.8-0.4v-0.9h9.1l13,11.7v-6.6c0-1-0.1-1.8-0.3-2.4c-0.2-0.5-0.5-0.9-0.9-1.1c-0.3-0.2-0.8-0.4-1.4-0.5
								c-0.6-0.1-1.2-0.2-1.6-0.3v-0.9h10.4V139.5z"/>
						</g>
						<g>
							<path class="st3" d="M518.5,143.5h-1.3c-0.4-0.7-0.9-1.5-1.7-2.4c-0.8-0.8-1.5-1.3-2.1-1.4c-0.3,0-0.8-0.1-1.3-0.1
								c-0.6,0-1,0-1.4,0h-0.8v13.6c0,0.3,0.1,0.5,0.2,0.8c0.1,0.2,0.4,0.4,0.9,0.5c0.2,0.1,0.7,0.1,1.2,0.2c0.5,0.1,1,0.1,1.4,0.2
								v1h-13.4v-1c0.3,0,0.8,0,1.4-0.1c0.6-0.1,1-0.1,1.2-0.2c0.4-0.1,0.7-0.3,0.9-0.5c0.1-0.2,0.2-0.5,0.2-0.8v-13.7h-0.8
								c-0.4,0-0.8,0-1.4,0c-0.5,0-1,0.1-1.3,0.1c-0.7,0.1-1.4,0.5-2.1,1.4c-0.8,0.8-1.3,1.6-1.7,2.4h-1.3v-5h23.3V143.5z"/>
						</g>
						<g>
							<path class="st3" d="M533.1,139.5c-0.3,0-0.8,0.1-1.3,0.1c-0.5,0-0.9,0.1-1.3,0.2c-0.4,0.1-0.7,0.3-0.9,0.5
								c-0.1,0.2-0.2,0.5-0.2,0.8v12.3c0,0.3,0.1,0.6,0.2,0.8c0.2,0.2,0.5,0.4,0.9,0.5c0.2,0.1,0.6,0.2,1.2,0.2
								c0.5,0.1,1,0.1,1.4,0.1v1h-13.3v-1c0.3,0,0.7,0,1.3-0.1c0.6,0,1-0.1,1.2-0.2c0.4-0.1,0.7-0.3,0.8-0.5
								c0.2-0.2,0.3-0.5,0.3-0.8v-12.3c0-0.3-0.1-0.5-0.3-0.7c-0.1-0.2-0.4-0.4-0.8-0.5c-0.3-0.1-0.7-0.2-1.2-0.3
								c-0.5-0.1-1-0.1-1.3-0.2v-0.9h13.3V139.5z"/>
						</g>
						<g>
							<path class="st3" d="M563,139.5c-0.3,0-0.8,0.1-1.4,0.1c-0.6,0.1-1.1,0.3-1.6,0.5c-0.4,0.2-0.7,0.6-0.9,1.1
								c-0.2,0.5-0.3,1.3-0.3,2.4v6.5c0,1.9-0.9,3.4-2.7,4.6c-1.8,1.2-4.1,1.7-7.1,1.7c-3.4,0-6.1-0.6-7.9-1.7
								c-1.9-1.1-2.8-2.7-2.8-4.7v-8.9c0-0.3,0-0.5-0.2-0.7c-0.2-0.2-0.5-0.4-0.9-0.5c-0.3-0.1-0.7-0.2-1.1-0.3
								c-0.4-0.1-0.8-0.1-1.1-0.2v-0.9h12.6v0.9c-0.4,0-0.7,0.1-1.1,0.1c-0.4,0-0.7,0.1-1.1,0.2c-0.4,0.1-0.7,0.3-0.9,0.5
								c-0.1,0.2-0.2,0.5-0.2,0.8v8.7c0,1.7,0.5,3,1.6,3.8c1,0.8,2.6,1.2,4.5,1.2c2,0,3.5-0.5,4.6-1.3c1.1-0.9,1.7-2.1,1.7-3.8v-5.9
								c0-1.1-0.1-1.8-0.3-2.3c-0.2-0.5-0.5-0.9-0.9-1.1c-0.3-0.2-0.8-0.3-1.5-0.5c-0.8-0.2-1.3-0.2-1.5-0.3v-1H563V139.5z"/>
						</g>
						<g>
							<path class="st3" d="M597.3,155.9h-13.1v-1c0.4,0,0.9-0.1,1.4-0.1c0.6-0.1,1-0.1,1.2-0.2c0.4-0.1,0.7-0.3,0.9-0.5
								c0.2-0.2,0.3-0.5,0.3-0.8v-13l-8.2,15.3h-2.1c-0.1-0.3-0.3-0.8-0.8-1.6c-0.4-0.8-0.7-1.4-1-1.9l-6-12v10.6
								c0,1,0.1,1.8,0.3,2.3c0.2,0.5,0.5,0.9,0.9,1.2c0.3,0.2,0.8,0.3,1.5,0.5c0.7,0.2,1.3,0.2,1.5,0.3v1h-10.4v-1
								c0.3,0,0.7-0.1,1.4-0.2c0.6-0.1,1.2-0.2,1.6-0.5c0.4-0.2,0.7-0.6,0.9-1.1c0.2-0.6,0.2-1.3,0.2-2.3v-8.6c0-0.5-0.1-1-0.3-1.3
								c-0.2-0.4-0.5-0.6-0.8-0.8c-0.4-0.3-0.9-0.4-1.4-0.5c-0.5-0.1-0.9-0.1-1.4-0.2v-0.9H575l5.9,11.5l5-9.3
								c0.2-0.3,0.4-0.7,0.5-1.2c0.1-0.5,0.2-0.8,0.3-0.9h10.6v0.9c-0.4,0-0.7,0.1-1.1,0.1c-0.4,0-0.8,0.1-1.1,0.2
								c-0.4,0.1-0.7,0.3-0.9,0.5c-0.2,0.2-0.2,0.5-0.2,0.8v12.3c0,0.3,0.1,0.6,0.2,0.8c0.2,0.2,0.4,0.4,0.9,0.5
								c0.2,0.1,0.6,0.2,1.1,0.2c0.5,0.1,0.9,0.1,1.2,0.1V155.9z"/>
						</g>
					</g>
				</g>
			</g>
		</g>
	</g>
</g>
</svg>
